<?xml version="1.0" encoding="iso-8859-1"?>
<!-- Uploaded to: SVG Repo, www.svgrepo.com, Generator: SVG Repo Mixer Tools -->
<svg fill="#000000" height="800px" width="800px" version="1.1" id="Layer_1" xmlns="http://www.w3.org/2000/svg" xmlns:xlink="http://www.w3.org/1999/xlink" 
	 viewBox="0 0 512 512" xml:space="preserve">
<g>
	<g>
		<path d="M509.107,36.526c-3.839-5.521-7.663-11.09-10.345-15.013c-1.948-2.848-5.427-6.328-8.276-8.274
			c-3.691-2.524-9.292-6.367-15.015-10.346c-3.758-2.614-8.187-3.512-12.158-2.465c-3.44,0.908-6.287,3.253-7.813,6.433
			c-7.546,15.742-27.272,30.573-33.139,34.743c-3.072,2.184-5.19,5.496-5.962,9.326l-1.425,7.078
			c-0.147,0.732-0.428,1.299-0.833,1.684L270.666,196.153c-1.978-2.665-3.61-4.657-4.854-5.901
			c-25.882-25.882-66.031-27.857-89.502-4.398c-6.526,6.526-11.25,16.714-13.658,29.457c-4.402,23.203-24.453,39.894-47.814,39.894
			c-0.198,0-0.397-0.001-0.597-0.003c-33.051-0.385-63.96,11.314-84.737,32.092C-15.438,332.235-8.22,412.581,45.596,466.397
			c30.081,30.081,68.438,45.606,104.281,45.603c28.288-0.002,55.012-9.677,74.837-29.502c22.251-22.263,33.863-55.411,31.86-90.949
			c-1.338-23.628,14.198-44.661,36.948-50.013c11.089-2.618,19.707-6.943,25.618-12.854c6.023-6.023,10.477-13.195,13.229-21.297
			c3.029-8.834,1.797-18.412-3.378-26.279c-5.102-7.756-13.267-12.607-22.401-13.309c-3.909-0.302-7.591-1.997-10.368-4.775
			c-0.168-0.168-0.318-0.348-0.477-0.522L452.292,97.846c0.387-0.406,0.955-0.687,1.689-0.834l7.076-1.418
			c3.836-0.769,7.153-2.887,9.34-5.964c4.17-5.866,19.001-25.591,34.742-33.136c3.18-1.524,5.524-4.371,6.432-7.812
			C512.618,44.715,511.72,40.284,509.107,36.526z M57.144,454.849c-4.554-4.555-8.734-9.318-12.542-14.241l19.243-13.534
			l21.083,21.085l-13.53,19.237C66.472,463.585,61.702,459.408,57.144,454.849z M305.336,284.081
			c4.059,0.311,7.707,2.499,10.011,6.001c2.377,3.614,2.95,7.989,1.566,12.027c-1.948,5.732-5.084,10.786-9.322,15.025
			c-3.681,3.681-9.844,6.623-17.817,8.506c-30.472,7.169-51.292,35.276-49.505,66.83c1.742,30.9-8.138,59.505-27.104,78.482
			c-16.686,16.686-39.243,24.803-63.318,24.802c-21.494-0.001-44.193-6.48-64.991-19.102l17.381-24.713
			c2.283-3.247,1.902-7.665-0.906-10.471l-30.794-30.794c-2.807-2.807-7.225-3.188-10.471-0.906l-24.716,17.383
			c-26.759-44.089-25.88-96.727,5.704-128.311c17.688-17.688,44.29-27.634,72.995-27.31c0.268,0.003,0.532,0.004,0.799,0.004
			c31.2-0.001,57.983-22.25,63.851-53.186c1.771-9.373,5.025-16.812,9.159-20.946c17.101-17.092,46.892-15.119,66.408,4.396
			c0.737,0.737,2.227,2.577,4.47,5.702l-40.49,38.51c-1.595,1.517-2.51,3.614-2.538,5.815c-0.028,2.201,0.835,4.32,2.391,5.876
			l36.22,36.22c1.532,1.532,3.609,2.392,5.774,2.392c0.034,0,0.069,0,0.103-0.001c2.2-0.027,4.297-0.943,5.815-2.539l18.464-19.42
			c0.07,0.072,0.13,0.149,0.199,0.219C290.205,280.103,297.542,283.48,305.336,284.081z M259.944,276.453l-24.378-24.378
			L421.651,75.092l15.246,15.247L259.944,276.453z M457.449,79.662l-6.674,1.337c-0.033,0.007-0.065,0.016-0.098,0.023
			l-19.707-19.708c0.005-0.028,0.014-0.056,0.021-0.085l1.344-6.676c8.224-5.897,26.308-20.068,35.888-36.815
			c5.023,3.484,9.781,6.747,13.05,8.982c1.18,0.807,3.204,2.831,4.012,4.011c2.366,3.46,5.611,8.19,8.979,13.046
			C477.516,53.357,463.346,71.436,457.449,79.662z"/>
	</g>
</g>
<g>
	<g>
		<path d="M218.687,371.617l-0.167-0.28c-2.854-4.777-9.611-5.381-13.163-1.095c-5.237,6.319-11.479,17.273-14.44,35.327
			c-2.429,14.816-6.708,23.47-9.768,28.045c-1.881,2.812-1.841,6.488,0.147,9.226c0.001,0.001,0.001,0.001,0.001,0.001
			c3.302,4.667,10.261,4.597,13.442-0.155c4.359-6.513,9.486-17.349,12.295-34.475c2.102-12.824,6.069-20.689,9.026-25.029
			c0.669-0.982,1.316-1.831,1.922-2.559C220.104,378.071,220.389,374.468,218.687,371.617z"/>
	</g>
</g>
<g>
	<g>
		<path d="M140.767,293.398c-2.759-1.952-6.421-1.977-9.235-0.103c-4.53,3.018-13.173,7.286-28.037,9.724
			c-32.266,5.291-41.851,21.064-42.839,22.845c-2.185,3.944-0.76,8.915,3.186,11.1h0.001c3.944,2.185,8.914,0.76,11.1-3.186
			c0.058-0.105,6.897-10.659,31.197-14.644c17.126-2.808,27.961-7.935,34.474-12.294C145.364,303.659,145.434,296.7,140.767,293.398
			z"/>
	</g>
</g>
<g>
	<g>
		<path d="M133.667,418.371l-40.033-40.033c-3.189-3.189-8.359-3.189-11.547,0c-3.189,3.189-3.189,8.358,0,11.547l40.033,40.033
			c1.594,1.595,3.684,2.392,5.774,2.392c2.089,0,4.18-0.797,5.774-2.392C136.856,426.729,136.856,421.56,133.667,418.371z"/>
	</g>
</g>
<g>
	<g>
		<path d="M160.611,391.427l-40.033-40.033c-3.189-3.189-8.359-3.189-11.547,0c-3.189,3.189-3.189,8.358,0,11.547l40.033,40.033
			c1.594,1.595,3.684,2.392,5.774,2.392s4.18-0.797,5.774-2.392C163.8,399.785,163.8,394.616,160.611,391.427z"/>
	</g>
</g>
<g>
	<g>
		<path d="M180.626,371.409l-40.033-40.033c-3.189-3.189-8.359-3.189-11.547,0c-3.189,3.189-3.189,8.358,0,11.547l40.033,40.033
			c1.594,1.595,3.684,2.392,5.774,2.392c2.089,0,4.18-0.797,5.774-2.392C183.816,379.769,183.816,374.598,180.626,371.409z"/>
	</g>
</g>
</svg>