<?xml version="1.0" encoding="iso-8859-1"?>
<!-- Uploaded to: SVG Repo, www.svgrepo.com, Generator: SVG Repo Mixer Tools -->
<svg fill="#000000" height="800px" width="800px" version="1.1" id="Layer_1" xmlns="http://www.w3.org/2000/svg" xmlns:xlink="http://www.w3.org/1999/xlink" 
	 viewBox="0 0 512 512" xml:space="preserve">
<g>
	<g>
		<path d="M297.102,215.441V89.427c6.155-1.362,10.762-6.842,10.762-13.406V58.534c6.887-0.743,12.251-6.571,12.251-13.655
			c0-7.084-5.364-12.912-12.251-13.655V13.739C307.864,6.152,301.713,0,294.125,0h-76.25c-7.588,0-13.739,6.152-13.739,13.739
			v17.485c-6.887,0.743-12.251,6.571-12.251,13.655c0,7.084,5.364,12.912,12.251,13.655v17.487c0,6.564,4.607,12.045,10.762,13.406
			v126.014c-64.381,18.165-110.025,77.591-110.025,145.432C104.873,444.205,172.669,512,256,512s151.127-67.796,151.127-151.127
			C407.127,293.032,361.484,233.606,297.102,215.441z M231.614,27.478h48.773v17.388c0,0.004,0,0.008,0,0.008
			c0,0.01,0,0.014,0,0.014v17.395h-48.773V27.478z M269.629,89.76v136.452h-0.004v69.09c-0.056-0.015-0.115-0.025-0.172-0.04
			c-0.964-0.25-1.941-0.47-2.925-0.668c-0.295-0.058-0.595-0.106-0.892-0.159c-0.745-0.136-1.492-0.258-2.246-0.363
			c-0.338-0.047-0.675-0.088-1.014-0.129c-0.761-0.091-1.528-0.163-2.299-0.223c-0.294-0.022-0.585-0.049-0.879-0.067
			c-1.058-0.062-2.123-0.103-3.196-0.103s-2.138,0.041-3.196,0.103c-0.294,0.018-0.587,0.045-0.879,0.067
			c-0.771,0.058-1.537,0.132-2.299,0.223c-0.339,0.04-0.676,0.082-1.014,0.129c-0.754,0.104-1.503,0.228-2.246,0.363
			c-0.297,0.055-0.596,0.102-0.892,0.159c-0.985,0.198-1.961,0.418-2.925,0.668c-0.056,0.015-0.115,0.025-0.172,0.04v-69.09V89.76
			H269.629z M238.784,327.563c0.295-0.26,0.589-0.523,0.896-0.769c0.356-0.286,0.727-0.555,1.099-0.823
			c0.298-0.216,0.595-0.436,0.901-0.638c0.4-0.262,0.813-0.504,1.227-0.746c0.302-0.176,0.602-0.359,0.911-0.522
			c0.429-0.228,0.872-0.43,1.316-0.635c0.316-0.146,0.628-0.299,0.949-0.431c0.445-0.184,0.905-0.341,1.363-0.5
			c0.337-0.117,0.669-0.245,1.01-0.348c0.458-0.139,0.929-0.246,1.397-0.36c0.353-0.085,0.703-0.185,1.061-0.257
			c0.492-0.098,0.996-0.159,1.497-0.229c0.344-0.048,0.681-0.114,1.028-0.147c0.71-0.07,1.432-0.098,2.158-0.11
			c0.136-0.001,0.271-0.019,0.408-0.019c0.137,0,0.271,0.018,0.408,0.019c0.725,0.011,1.448,0.04,2.158,0.11
			c0.345,0.033,0.684,0.099,1.026,0.147c0.501,0.069,1.006,0.132,1.498,0.229c0.357,0.071,0.706,0.17,1.059,0.257
			c0.468,0.114,0.94,0.221,1.399,0.36c0.341,0.103,0.673,0.231,1.01,0.348c0.458,0.159,0.916,0.315,1.363,0.5
			c0.321,0.132,0.633,0.286,0.949,0.431c0.442,0.203,0.886,0.407,1.316,0.635c0.308,0.164,0.607,0.345,0.909,0.522
			c0.415,0.242,0.828,0.484,1.228,0.747c0.306,0.202,0.602,0.422,0.9,0.636c0.371,0.268,0.743,0.536,1.099,0.823
			c0.305,0.246,0.599,0.51,0.896,0.769c5.435,4.787,8.886,11.776,8.886,19.57c0,14.394-11.71,26.104-26.104,26.104
			s-26.104-11.71-26.104-26.104C229.896,339.339,233.349,332.35,238.784,327.563z M256,484.522
			c-68.18,0-123.649-55.469-123.649-123.649c0-52.859,33.846-99.49,82.547-116.655v68.587c-7.784,9.304-12.479,21.276-12.479,34.328
			c0,29.545,24.036,53.581,53.581,53.581c29.545,0,53.581-24.036,53.581-53.581c0-13.052-4.696-25.022-12.479-34.328v-68.587
			c48.703,17.165,82.547,63.798,82.547,116.655C379.649,429.053,324.18,484.522,256,484.522z"/>
	</g>
</g>
<g>
	<g>
		<path d="M195.439,408.089c-0.177-0.881-0.44-1.746-0.783-2.57c-0.343-0.838-0.769-1.635-1.264-2.377
			c-0.495-0.756-1.072-1.456-1.704-2.088c-0.632-0.632-1.346-1.209-2.088-1.704c-0.756-0.495-1.552-0.921-2.377-1.264
			s-1.69-0.618-2.569-0.797c-1.772-0.357-3.6-0.357-5.372,0c-0.879,0.179-1.745,0.453-2.569,0.797s-1.621,0.769-2.377,1.264
			c-0.742,0.495-1.443,1.072-2.075,1.704c-0.646,0.632-1.209,1.333-1.717,2.088c-0.495,0.742-0.921,1.539-1.264,2.377
			c-0.343,0.824-0.604,1.689-0.783,2.569c-0.179,0.879-0.261,1.786-0.261,2.678c0,0.893,0.082,1.801,0.261,2.693
			c0.179,0.867,0.44,1.732,0.783,2.569c0.343,0.826,0.769,1.623,1.264,2.365c0.508,0.756,1.072,1.456,1.717,2.088
			c2.555,2.555,6.086,4.025,9.713,4.025c0.893,0,1.8-0.095,2.679-0.273c0.879-0.165,1.745-0.44,2.569-0.783s1.621-0.771,2.377-1.264
			c0.742-0.495,1.456-1.072,2.088-1.704c0.632-0.632,1.209-1.333,1.704-2.088c0.495-0.742,0.92-1.539,1.264-2.365
			c0.344-0.837,0.605-1.702,0.783-2.569c0.179-0.892,0.275-1.8,0.275-2.693C195.714,409.875,195.618,408.967,195.439,408.089z"/>
	</g>
</g>
<g>
	<g>
		<path d="M345.302,347.133c-7.588,0-13.739,6.152-13.739,13.739c0,41.666-33.898,75.563-75.563,75.563
			c-13.202,0-26.199-3.468-37.585-10.031c-6.575-3.791-14.975-1.531-18.763,5.043c-3.789,6.574-1.531,14.974,5.044,18.763
			c15.554,8.963,33.295,13.702,51.306,13.702c56.817,0,103.041-46.224,103.041-103.041
			C359.041,353.285,352.89,347.133,345.302,347.133z"/>
	</g>
</g>
</svg>