<?xml version="1.0" encoding="iso-8859-1"?>
<!-- Uploaded to: SVG Repo, www.svgrepo.com, Generator: SVG Repo Mixer Tools -->
<svg fill="#000000" height="800px" width="800px" version="1.1" id="Layer_1" xmlns="http://www.w3.org/2000/svg" xmlns:xlink="http://www.w3.org/1999/xlink" 
	 viewBox="0 0 511.999 511.999" xml:space="preserve">
<g>
	<g>
		<path d="M232.072,279.929c-17.591-17.589-46.208-17.589-63.799,0c-17.587,17.589-17.587,46.208,0,63.797
			c8.796,8.796,20.346,13.192,31.899,13.192c11.552,0,23.105-4.398,31.899-13.192c8.521-8.521,13.212-19.849,13.212-31.899
			C245.284,299.778,240.592,288.45,232.072,279.929z M219.474,331.129c-10.642,10.643-27.961,10.643-38.602,0
			c-10.643-10.643-10.643-27.961,0-38.602c5.321-5.321,12.31-7.983,19.301-7.983s13.98,2.66,19.301,7.981
			c5.156,5.156,7.994,12.011,7.994,19.301C227.468,319.119,224.63,325.974,219.474,331.129z"/>
	</g>
</g>
<g>
	<g>
		<path d="M167.158,400.921l-56.077-56.077c-3.479-3.478-9.118-3.479-12.598,0l-20,20c-3.479,3.479-3.479,9.118,0,12.597
			l56.076,56.077c1.671,1.67,3.936,2.609,6.3,2.609c2.363,0,4.627-0.938,6.299-2.609l20-20
			C170.637,410.039,170.637,404.4,167.158,400.921z M140.858,414.621L97.38,371.142l7.402-7.402l43.478,43.479L140.858,414.621z"/>
	</g>
</g>
<g>
	<g>
		<path d="M506.682,68.188l2.266-1.978c2.891-2.523,3.841-6.613,2.359-10.152c-10.54-25.165-30.203-44.827-55.366-55.366
			c-3.537-1.482-7.629-0.532-10.152,2.359l-1.978,2.266l-0.355-0.355c-3.479-3.479-9.119-3.48-12.597,0
			c-3.48,3.479-3.48,9.118-0.001,12.597l1.21,1.21l-7.08,8.111l-0.354-0.354c-3.479-3.479-9.119-3.48-12.597,0
			c-3.48,3.479-3.48,9.118-0.001,12.597l1.21,1.21l-7.08,8.111l-0.125-0.125c-3.48-3.479-9.12-3.48-12.597,0
			c-3.48,3.479-3.48,9.118-0.001,12.597l1.936,1.936c-2.525,4.564-4.462,9.446-5.705,14.537L244.954,211.596
			c-31.058-17.687-60.746-16.774-80.352,2.83c-8.342,8.345-16.562,21.873-23.142,38.091c-5.693,14.018-17.928,24.225-32.733,27.305
			c-35.758,7.447-71.682,24.358-89.391,42.078C1.982,339.249-3.96,363.783,2.604,390.985c5.914,24.497,21.822,50.641,44.795,73.615
			c22.975,22.974,49.117,38.882,73.615,44.795c7.224,1.744,14.259,2.605,21.022,2.605c18.703,0,35.318-6.589,48.058-19.332
			c17.724-17.71,34.636-53.635,42.082-89.395c3.08-14.802,13.287-27.038,27.293-32.727c16.197-6.553,29.727-14.773,38.102-23.147
			c19.592-19.593,20.508-49.281,2.83-80.35l134.208-144.724c5.092-1.242,9.973-3.181,14.537-5.704l1.937,1.937
			c1.739,1.739,4.019,2.609,6.298,2.609c2.279,0,4.56-0.869,6.3-2.609c3.479-3.479,3.479-9.119-0.001-12.597l-0.125-0.125
			l8.11-7.079l1.209,1.209c1.74,1.74,4.019,2.609,6.299,2.609c2.279,0,4.56-0.869,6.298-2.609c3.48-3.479,3.48-9.118,0.001-12.597
			l-0.355-0.355l8.111-7.08l1.21,1.21c1.74,1.74,4.019,2.609,6.299,2.609c2.279,0,4.56-0.869,6.298-2.609
			c3.48-3.479,3.48-9.118,0.001-12.597L506.682,68.188z M284.975,334.799c-6.627,6.626-18.358,13.635-32.197,19.234
			c-19.53,7.931-33.753,24.982-38.043,45.607c-6.692,32.133-22.001,65.204-37.237,80.427c-16.395,16.401-37.49,15.584-52.304,12.008
			c-21.355-5.155-44.51-19.387-65.197-40.074c-20.688-20.688-34.919-43.843-40.074-65.197c-3.576-14.812-4.394-35.909,12.011-52.308
			c15.218-15.23,48.289-30.54,80.421-37.232c20.625-4.29,37.677-18.511,45.61-38.045c5.621-13.859,12.632-25.594,19.231-32.194
			c12.565-12.562,32.229-13.34,53.928-2.605l-8.244,7.645c-2.721,2.523-3.592,6.468-2.189,9.902
			c1.405,3.435,4.802,5.642,8.498,5.533c9.541-0.276,18.53,3.292,25.272,10.036c6.744,6.744,10.308,15.719,10.036,25.273
			c-0.106,3.709,2.1,7.094,5.534,8.498c1.091,0.447,2.235,0.663,3.368,0.663c2.431,0,4.814-0.995,6.534-2.852l7.643-8.243
			C298.306,302.582,297.528,322.247,284.975,334.799z M279.106,263.813c-2.588-7.032-6.674-13.504-12.044-18.875
			c-5.37-5.371-11.841-9.456-18.875-12.043L397.552,94.383l20.066,20.066L279.106,263.813z M447.659,96.061
			c-4.347,3.795-9.451,6.605-14.94,8.292l-25.071-25.071c1.688-5.49,4.498-10.593,8.292-14.941l38.886-44.55
			c16.178,8.211,29.172,21.206,37.383,37.384L447.659,96.061z"/>
	</g>
</g>
</svg>