<?xml version="1.0" encoding="utf-8"?>

<!-- Uploaded to: SVG Repo, www.svgrepo.com, Generator: SVG Repo Mixer Tools -->
<svg fill="#000000" height="800px" width="800px" version="1.1" id="Icons" xmlns="http://www.w3.org/2000/svg" xmlns:xlink="http://www.w3.org/1999/xlink" 
	 viewBox="0 0 32 32" xml:space="preserve">
<path d="M31.4,3.6l-3-3c-0.1-0.1-0.3-0.2-0.4-0.1c-0.2,0-0.3,0.1-0.4,0.3l-0.9,1.9l-0.9-0.9c-0.4-0.4-1-0.4-1.4,0s-0.4,1,0,1.4
	l1.1,1.1l-0.9,0.8c0-0.1-0.1-0.2-0.2-0.3l-1.5-1.5c-0.4-0.4-1-0.4-1.4,0c-0.4,0.4-0.4,1,0,1.4l1.5,1.5c0.1,0.1,0.1,0.1,0.2,0.1
	l-5,4.7c-2.8-1.5-6.4-1.1-8.7,1.2l-0.1,0.1c-0.3,0.3-0.4,0.8-0.2,1.1c0.4,0.8,0.2,1.8-0.4,2.5c-0.8,0.8-2.2,0.8-3,0
	c-0.4-0.3-0.9-0.4-1.3-0.1c-0.3,0.2-0.6,0.5-0.9,0.8c-3.3,3.3-3.3,8.6,0,11.9C5.1,30.2,7.2,31,9.4,31s4.3-0.8,5.9-2.5
	c0.3-0.3,0.5-0.6,0.8-0.9c0.3-0.4,0.3-0.9-0.1-1.3c-0.8-0.8-0.8-2.2,0-3c0.6-0.6,1.6-0.8,2.5-0.4c0.4,0.2,0.8,0.1,1.1-0.2l0.1-0.1
	c2.3-2.3,2.8-5.8,1.2-8.7l4.7-5c0,0.1,0.1,0.1,0.1,0.2l1.5,1.5c0.2,0.2,0.5,0.3,0.7,0.3s0.5-0.1,0.7-0.3c0.4-0.4,0.4-1,0-1.4
	l-1.5-1.5c-0.1-0.1-0.2-0.2-0.3-0.2l0.8-0.9l1.1,1.1c0.2,0.2,0.5,0.3,0.7,0.3s0.5-0.1,0.7-0.3c0.4-0.4,0.4-1,0-1.4l-0.9-0.9l1.9-0.9
	c0.1-0.1,0.2-0.2,0.3-0.4C31.5,3.9,31.5,3.7,31.4,3.6z M11.4,25l-3.7,2.2c-0.2,0.1-0.3,0.1-0.5,0.1c-0.3,0-0.5-0.1-0.7-0.3l-1.5-1.5
	c-0.3-0.3-0.4-0.8-0.2-1.2L7,20.6c0.2-0.3,0.4-0.4,0.7-0.5c0.3,0,0.6,0.1,0.8,0.3l3,3c0.2,0.2,0.3,0.5,0.3,0.8S11.6,24.8,11.4,25z"
	/>
</svg>