<svg width="540.5" height="640.3" version="1.0" viewBox="0 0 540.5 640.3" xmlns="http://www.w3.org/2000/svg">
 <g>
  <g transform="matrix(.87464 0 0 -.85185 30.837 629.33)">
   <polygon points="268.4 469 268.4 469.15 268.5 469.4 268.55 469.6 268.65 470.2 268.6 469.95 268.5 469.4 268.4 469 268.4 468.9 268.35 468.8 268.35 468.75 268.3 468.7 268.35 468.8 268.35 468.85 268.4 468.95" fill-rule="evenodd"/>
   <polyline points="149.85 543.6 149.75 545.25 149.6 546.8 149.55 548.35 149.5 549.8 149.55 551.3 149.6 552.7 149.85 555.45 150.35 558.1 150.7 559.4 151 560.6 151.45 561.85 151.9 563 152.4 564.15 152.9 565.2 154.2 567.35 154.9 568.4 155.6 569.35 156.45 570.35 157.25 571.25 158.15 572.15 159.05 572.95 160.1 573.8 161.1 574.55 163.3 576 165.7 577.35 167 578 168.25 578.55 179.15 579.3 181.1 578.85 183.15 578.3 185.1 577.7 185.95 577.4 186.65 577.05 187.9 576.45 188.35 576.15 188.7 575.8 189.85 575 192.65 571.2 193.65 568.65 194.7 565.85 195.15 564.45 195.55 563.1 195.95 561.85 196.25 560.65 196.6 559.55 196.9 558.5 197.2 557.55 197.4 556.65 197.7 555.85 197.9 555.1 198.1 554.45 198.25 553.85 198.45 553.35 198.6 552.9 198.7 552.55 198.75 552.25 199.65 549.65 200.35 547 200.95 544.3 201.3 541.55 201.8 541.45 201.95 540.85 202.1 540.1 202.3 539.3 202.45 538.4 202.7 537.5 202.95 536.5 203.25 535.45 203.5 534.25 203.9 533.1 204.25 531.8 204.65 530.5 205.05 529.05 205.55 527.6 206 526.05 206.55 524.45 207.05 522.75 208.2 519.45 209.3 516.2 210.4 513.15 211.45 510.15 214.75 498.2 214.7 496.65 215 495.4 215.3 493.85 215.5 493 215.65 492.05 216.05 489.95 216.55 487.7 216.85 486.5 217.1 485.15 217.7 482.35 218.3 479.25 218.7 477.7 219.05 476 219.85 472.45 220.3 470.65 220.7 468.7 221.15 466.75 221.55 464.65 222.05 462.6 222.5 460.4 223.5 455.85 224.05 453.55 224.55 451.1 225.65 446.05 228 435.95 230.25 426.05 231.35 421.2 232.45 416.4 234.6 406.9 236.45 400.4 238.45 393.9 239.55 390.7 240.65 387.45 241.85 384.25 242.45 382.65 242.75 381.85 242.9 381.45 243 381 245.55 375.65 246.2 374.65 246.7 373.85 246.95 373.55 247.15 373.3 247.35 373.1 247.45 372.95 247.95 372.75 248.1 372.75 248.2 372.7 248.4 372.6 248.7 372.6 248.85 372.6 248.95 372.55 249.25 372.55 249.4 372.55 249.5 372.5 250.15 372.6 250.75 372.7 251.45 372.9 252.15 373.15 252.65 373.4 253.1 373.6 253.6 373.9 253.75 374 253.85 374.05 254.05 374.15 254.8 374.65 258.5 382.75 260.6 392.25 262.45 401.65 264.1 411.05 265.5 420.3 266.7 429.55 267.65 438.7 268.4 447.8 268.9 456.8 268.55 457.4 269.55 481.55 270.1 488.65 270.75 495.2 271.45 501.7 272.2 508.2 273.05 514.65 274 521.15 275.05 527.6 276.15 534.05 277.3 540.45 277.4 540.6 277.4 540.75 277.45 540.85 277.45 540.9 277.45 541 277.45 541.3 277.55 541.7 277.6 541.8 277.6 541.85 277.6 541.95 277.6 542.15 277.7 542.7 277.7 543.3 277.95 545.55 278.15 547.55 278.25 548.45 278.35 549.4 278.55 551.4 278.65 552 278.7 552.3 278.7 552.55 278.8 553.7 279 556.1 279.3 558.8 279.45 560.2 279.55 561.65 279.75 563.2 279.85 564 279.9 564.4 279.9 564.75 280.2 568.05 280.55 571.1 280.8 574 281.05 576.75 281.25 579.35 281.45 581.9 281.6 584.25 281.75 586.5 281.8 588.6 282.15 594.25 282.55 599.85 283 605.45 283.55 611 284.05 613.8 284.65 616.55 285.05 617.95 285.5 619.25 286.5 621.85 287.25 623.4 288.05 624.85 288.9 626.25 289.75 627.5 290.75 628.8 291.75 629.95 292.8 631.05 293.85 632.05 295.05 633.1 296.25 634 297.5 634.85 298.8 635.6 300.2 636.35 301.65 636.95 303.15 637.55 304.65 638 306.25 638.45 307.8 638.7 309.35 638.8 310.85 638.7 312.35 638.55 313.8 638.15 315.25 637.65 316.65 636.95 318.9 635.75 320.9 634.4 322.75 632.95 324.4 631.4 325.95 629.75 327.3 628 328.5 626.15 329.5 624.1 330.4 622.05 330.8 621 331.1 619.85 331.65 617.6 331.95 615.15 332.2 612.7 332.2 610.05 332.2 608.75 332.1 607.35 331.75 604.5 332.35 596.8 332.8 589.1 333.2 581.5 333.45 573.95 333.6 570.25 333.55 566.5 333.4 562.75 333.15 558.95 332.95 555 332.75 550.85 332.55 546.55 332.25 542 332.2 539.8 332.1 537.65 332 535.55 331.9 533.5 331.85 531.6 331.75 529.7 331.7 527.9 331.6 526.15 331.6 524.55 331.55 522.95 331.55 521.45 331.45 520 331.45 518.65 331.45 517.35 331.45 516.15 331.45 515.6 331.4 515 331.4 514.65 331.4 514.1 331.35 513.4 331.25 512.45 331.15 511.45 331.05 510.2 330.9 508.85 330.7 507.25 330.6 505.7 330.55 505 330.45 504.3 330.35 503.05 330.35 502.8 330.3 502.5 330.2 501.9 330.2 501.45 330.15 500.95 330.05 500.15 330.05 499.5 330.05 499.25 330 498.95 330 498.8 330.3 494.6 330.4 490.35 330.3 486.1 329.95 481.8 329.85 480.05 329.65 478.1 329.55 476.1 329.35 473.95 329.25 471.75 329.05 469.4 328.9 466.95 328.7 464.35 328.6 461.7 328.4 458.95 328.25 456.1 328.05 453.05 327.95 450 327.75 446.75 327.55 443.45 327.35 440 327.25 436.6 327.05 433.25 326.95 430 326.75 426.75 326.65 423.65 326.6 422.15 326.5 420.6 326.4 417.65 326.4 416.95 326.4 416.6 326.35 416.2 326.25 414.7 326.2 412.5 326.2 411.4 326.2 410.85 326.15 410.25 326.1 405.85 326.2 403.7 326.25 401.5 326.4 397.2 326.8 393 327.25 388.7 327.85 384.4 328.55 380 328.95 378.7 332.6 364.2 336.95 359.75 337.5 359.7 337.85 359.75 338.1 359.9 338.25 360.1 338.65 361.25 339 362.45 339.4 363.8 339.8 365.15 340.3 366.65 340.7 368.2 341.2 369.85 341.65 371.55 341.95 372.5 342.2 373.4 342.7 375.35 343.3 377.4 343.8 379.45 344.4 381.65 345 383.9 345.6 386.25 346.2 388.7 350.8 406.95 351.3 407.2 352.75 412.7 354.1 417.85 355.4 422.8 356.55 427.45 357.7 431.9 358.75 436 359.75 439.9 360.65 443.5 361.55 446.75 362.35 449.75 363.15 452.6 363.85 455.25 364.55 457.8 365.2 460.1 365.8 462.25 366.35 464.2 366.9 466.05 367.4 467.7 367.85 469.2 368.25 470.45 368.65 471.65 369 472.6 369.3 473.4 369.55 473.95 370.1 474.3 370.85 480.55 371.7 486.65 372.75 492.75 373.9 498.7 375.25 504.65 376.7 510.5 378.35 516.35 380.1 522.05 382.1 527.8 384.2 533.4 386.45 539 388.8 544.45 391.35 549.9 394.05 555.25 396.9 560.6 399.85 565.8 400.8 567.05 401.8 568.1 402.9 569.05 404.05 569.9 405.3 570.65 406.65 571.3 408.05 571.85 409.5 572.3 411.45 572.8 413.3 573.1 415.15 573.25 416.85 573.25 418.6 573.15 420.2 572.85 421.8 572.45 423.3 571.85 424.85 571.2 426.25 570.35 427.65 569.4 428.95 568.25 430.25 567 431.45 565.6 432.65 564.05 433.7 562.3 434.7 560.25 435 558.85 435.25 557.2 435.45 555.45 435.6 553.45 435.75 551.35 435.8 549 435.85 546.5 435.8 543.8 435.8 541.15 435.7 538.55 435.6 536.15 435.45 533.8 431.3 505.35 430.85 505.05 430.15 501.15 429.45 497.35 429.15 495.55 429 494.65 428.8 493.7 428.5 491.95 428.45 491.55 428.35 491.1 428.15 490.2 428.05 489.4 428 489 427.9 488.55 427.6 486.9 427.1 483.75 426.9 482.25 426.65 480.75 426.45 479.3 426.35 478.6 426.35 478.45 426.3 478.25 426.2 477.85 425.75 474.25 425.35 470.7 425.2 469 425 467.25 424.7 463.8 424.5 460.5 424.45 458.9 424.35 457.25 424.25 454.1 424.25 452.55 424.2 450.95 421.95 435.3 421.65 433.2 421.35 431.15 421.05 429.2 421.05 429 421 428.75 420.9 428.25 420.7 427.25 420.4 425.4 420.1 423.6 419.8 421.9 419.65 421.1 419.45 420.25 419.35 419.5 419.2 418.7 418.9 417.2 418.3 414.4 418.1 413.1 417.8 411.85 417.7 411.3 417.55 410.7 417.25 409.55 417 408.15 416.65 406.55 416.3 404.7 415.9 402.6 415.5 400.35 415.05 397.85 414.6 395.1 414.05 392.1 413.65 389.45 413.45 388.2 413.2 386.9 412.8 384.5 412.6 383.4 412.5 382.85 412.35 382.25 411.95 380.2 411.55 378.25 411.15 376.45 410.95 375.65 410.85 375.25 410.8 375.05 410.7 374.8 410.6 373.8 410.5 372.85 410.4 372.05 410.3 371.35 410.3 370.85 410.2 370.4 410.2 370.1 410.1 369.85 410 369.4 409.9 368.85 409.8 368.2 409.65 367.45 409.55 366.7 409.45 365.75 409.15 363.7 408.95 361.6 408.75 359.65 407.35 354.9 406.05 350.05 404.95 345.1 403.95 339.95 403.15 334.8 402.5 329.5 402 324.15 401.65 318.6 402.35 317.8 404.55 317.6 406.5 318.2 408.45 319.5 410.3 320.75 413.95 323.45 415.75 324.9 417.45 326.35 419.15 327.9 420.75 329.4 424 332.7 427.05 336.1 428.55 337.9 429.95 339.7 432.7 343.45 435.1 345.3 437.35 347.25 439.5 349.25 441.55 351.3 443.6 353.5 445.45 355.75 447.3 358.05 448.95 360.4 461.15 375.9 461.15 376.6 467.85 384.65 468.5 384.8 474.05 391.9 479.55 399.05 485.05 406.3 490.45 413.6 491.4 415 492.25 416.35 493.1 417.75 493.8 419.15 494.3 419.85 494.7 420.55 495.1 421.3 495.4 422 496.25 423.95 497.1 425.7 498.05 427.45 499 429.05 500.05 430.6 501.15 432.05 502.35 433.45 503.55 434.7 504.9 435.95 506.25 437.05 507.7 438.1 509.15 439.05 510.75 440 512.35 440.75 514.05 441.5 515.75 442.05 517.65 442.55 519.45 442.75 521.25 442.7 523.05 442.35 524.65 441.95 526.1 441.4 527.55 440.75 528.85 439.9 530.15 439 531.3 437.95 532.45 436.8 533.45 435.5 535.15 433.05 536.5 430.4 537.45 428.1 538.1 425.65 538.7 422.85 538.9 421.45 538.95 420 539 417.2 538.9 415.8 538.7 414.35 538.25 411.55 537.45 408.75 537 407.4 536.45 406 535.1 403.2 530 393.4 527.5 388.6 524.9 383.85 519.8 374.55 519.2 373.45 518.9 372.9 518.55 372.3 517.25 370 514.65 365.5 512.15 361.1 509.55 356.75 504.45 348.25 501.95 344.1 499.35 340 496.85 335.95 494.25 331.95 493.5 330.35 491.9 328 490.15 325.65 488.4 323.4 486.45 321.25 484.5 319.2 482.4 317.25 480.25 315.4 477.95 313.6 477.4 312.4 476.75 311.2 476 310.1 475.05 309 473.6 307.4 472.15 305.7 469.35 302.15 466.85 298.5 464.45 294.65 462.35 290.7 460.45 286.55 458.75 282.3 458 280.1 457.25 277.8 456.4 275.15 456.2 274.5 456.1 274.2 456.1 274.15 456.05 274.05 455.95 273.85 455.75 273.25 455.5 272.65 455.45 272.45 455.35 272.2 455.15 271.75 454.75 270.95 454.4 270.25 454.25 269.95 454.05 269.6 453.75 269 453.65 268.75 453.5 268.45 453.15 267.35 452.95 266.25 452.9 266 452.8 265.75 452.65 265.3 452.65 265.2 452.65 265.15 452.6 265.05 452.5 264.8 452.3 264.4 451.6 263.05 450.8 261.85 450 260.8 449.05 259.9 448.9 258.85 448.7 257.6 448.5 256.25 448.2 254.7 447.95 253.05 447.6 251.25 447.25 249.3 446.85 247.2 446.45 244.8 446.3 243.8 446.1 242.85 445.95 241.95 445.75 241.1 445.65 240.35 445.45 239.65 445.35 239 445.2 238.4 445.2 238.2 445.2 238.1 445.2 238.05 445.15 237.95 445.05 237.5 445.05 237.35 445 237.15 444.9 236.8 444.8 236.4 444.8 236.3 444.75 236.25 443.45 228.2 439.35 207.45 438.85 204.6 438.75 203.95 438.6 203.25 438.3 201.85 438.1 200.55 438 199.9 437.85 199.2 437.35 196.55 436.95 194.05 436.45 191.6 436.05 189.25 435.85 188.1 435.6 186.9 435.55 186.4 435.45 185.85 435.25 184.75 434.85 182.65 434.55 180.6 434.55 180.4 434.5 180.15 434.4 179.65 434.2 178.65 433.9 176.8 433.6 175 433.35 173.3 433.05 171.65 432.65 171.25 431 159.45 430.65 159.05 430.65 158.85 430.6 158.6 430.5 158.1 430.3 157.1 429.9 155.1 429.1 151.15 427.5 143.45 426.8 139.7 426 136 425.25 132.4 424.45 128.8 424.25 127.7 423.95 126.55 423.6 125.5 423.15 124.4 422.7 123.4 422.15 122.35 421.6 121.35 420.95 120.3 419.35 117.6 417.85 114.9 416.65 112.2 416.1 110.85 415.6 109.45 414.8 106.75 414.2 104 413.8 101.3 413.6 98.5 413.7 95.8 413.8 94.4 413.95 93 414.45 90.3 414.75 88.9 415.1 87.5 416 84.8 417.1 82 417.75 80.6 418.45 79.2 419.95 76.4 422.65 70 423.4 68.35 424.1 66.75 424.75 65.3 425.3 63.9 425.85 62.7 426.35 61.55 426.8 60.6 427.2 59.65 427.55 58.75 427.65 57.75 427.5 56.75 427.05 55.7 426.45 54.65 425.55 53.5 424.4 52.35 422.95 51.15 421.35 49.95 419.45 48.7 417.35 47.45 414.95 46.1 412.35 44.8 409.5 43.4 406.4 42 403 40.55 400.05 39.35 396.95 38.15 393.75 36.95 390.35 35.7 386.9 34.5 383.25 33.25 379.5 32 375.55 30.7 371.55 29.45 367.35 28.15 363.05 26.85 358.6 25.55 354.05 24.25 349.35 22.95 344.5 21.65 339.5 20.25 335.2 19.15 330.9 18.05 328.8 17.55 328.3 17.45 327.75 17.3 326.65 17 322.35 15.9 318.15 14.9 313.95 13.85 312.95 13.65 312.45 13.55 311.9 13.4 309.8 12.9 305.65 11.9 303.65 11.5 302.65 11.3 302.15 11.2 301.6 11.05 297.55 10.15 293.55 9.3 289.5 8.4 289.05 8.35 288.55 8.25 287.55 8.05 285.55 7.65 281.6 6.85 277.7 6.1 273.8 5.3 270.45 4.7 268.85 4.45 267.25 4.15 264.25 3.65 261.35 3.15 260.05 3 258.7 2.8 258.1 2.75 257.45 2.65 256.2 2.45 253.9 2.15 251.75 1.85 250.75 1.8 249.8 1.7 248.9 1.65 248.05 1.55 247.3 1.55 246.6 1.5 245.95 1.5 245.35 1.5 244.85 1.6 244.4 1.6 243.7 1.7 243.45 1.8 243.25 1.9 243.2 2 243.1 2.05 243 2.15 242.7 3.3 242.25 4.3 241.85 5.2 241.35 6.15 240.85 7.2 240.25 8.25 239 10.65 238.35 11.95 237.6 13.25 236.9 14.7 236.1 16.2 235.3 17.75 234.4 19.35 233.55 21.05 232.6 22.8 231.65 24.6 230.6 26.45 223.15 40.45 221.35 41.55 220.45 42.1 219.5 42.6 215.9 44.75 212.35 46.95 210.65 48.1 208.9 49.2 207.55 49.8 206.9 50.1 206.2 50.35 205.6 50.7 204.95 51 203.7 51.6 203.15 52 202.55 52.35 201.4 53.05 200.3 53.8 199.2 54.55 199 54.8 198.75 55 198.25 55.4 198.05 55.65 197.8 55.85 197.3 56.25 196.45 57.15 195.55 58.05 194.8 59.05 194.05 60.05 193.35 61.1 192.65 62.15 189.35 65.4 180.5 74.15 172.3 83.15 165.35 90.05 145.85 112.25 143.85 114.3 139.45 118.3 137.75 119.85 133.9 123.7 129.95 127.4 126 131.05 121.95 134.5 121.5 134.6 106.6 150 99.1 163.5 94.65 177.95 93.15 181.7 91 187.85 89.85 190.85 88.5 193.75 87.15 196.65 85.65 199.45 84.1 202.25 82.45 204.95 79 210.3 77.15 212.9 75.2 215.4 73.2 217.9 71.05 220.3 68.9 222.7 66.55 225 66.5 225.2 66.25 225.5 66.1 225.75 65.9 226.05 65.65 226.4 65.3 226.75 64.65 227.75 64.25 228.3 63.75 228.85 63.3 229.55 62.75 230.25 62.2 231 61.55 231.75 60.3 233.6 59.7 234.5 59.05 235.3 58.5 236.15 57.95 236.9 56.9 238.35 56.05 239.7 55.25 240.95 54.6 242.1 53.95 243.05" fill="none" stroke="#000" stroke-linecap="square" stroke-miterlimit="10" stroke-width="3"/>
   <polyline points="53.95 243.05 53.25 244.7 52.45 246.25 51.65 247.8 50.7 249.25 49.8 250.7 48.75 252.05 46.55 254.6 41.6 259.95 39.1 262.6 36.5 265.15 31.35 270.2 26 275.15 20.65 280 15.1 284.7 9.45 289.25 3.7 293.65 3.15 294.6 2.7 295.35 2.4 296 2.3 296.25 2.15 296.4 1.95 297.25 1.75 298.05 1.6 298.85 1.5 299.65 1.5 301.6 1.7 303.45 1.9 304.4 2.15 305.3 2.45 306.2 2.8 307 3.5 308.3 4.25 309.45 5.05 310.55 5.9 311.5 6.85 312.45 7.85 313.2 8.9 313.9 10 314.45 14.1 316.3 18.1 317.85 22.2 319.15 26.2 320.15 30.3 320.95 32.35 321.25 34.35 321.4 38.45 321.65 42.45 321.6 46.55 321.35 50.65 320.8 54.75 320.05 56.8 319.55 58.8 318.95 62.9 317.65 67 316.05 71.1 314.25 75.2 312.1 76.8 311.3 78.45 310.4 80.2 309.5 82 308.45 83.85 307.5 84.75 307.05 85.55 306.55 87.1 305.65 88.5 304.75 89.85 304 90.5 303.65 91.05 303.25 92.1 302.55 92.6 302.25 93 301.9 97.4 296.95 101.1 289.95 105.2 277 106.45 274.8 106.8 274.3 107.05 273.85 107.3 273.45 107.45 273.1 107.6 272.85 107.7 272.65 107.75 272.5 107.75 272.4 110.55 268.1 113.3 264.8 117.4 260.75 118.7 259.4 120.2 257.95 121.9 256.4 123.8 254.65 124.85 253.8 125.95 252.9 128.25 250.95 130.75 249 133.45 246.85 137.05 244.2 140.75 241.5 143.85 239.35 151.95 239.1 154.7 241.55 157.25 244.05 159.8 246.65 162.15 249.3 164.5 252.05 166.65 254.9 168.8 257.85 170.75 260.85 170.8 260.95 170.85 261.05 171 261.25 171.15 261.45 171.3 261.65 171.4 261.8 171.55 262 171.65 262.15 171.85 262.4 172 262.6 172.2 262.85 172.35 263.05 173.2 264.2 173.85 265.1 174.15 265.5 174.35 265.8 174.55 266.1 174.65 266.3 176.3 269 177.7 271.7 178.95 274.5 179.5 275.95 179.95 277.35 180.9 280.3 181.6 283.3 182.15 286.4 182.5 289.5 183.05 295.9 183.4 302.25 183.65 308.65 183.7 314.95 183.65 321.35 183.4 327.65 183.05 333.95 182.5 340.25 181.9 346.6 181.1 352.9 180.15 359.2 179 365.5 177.75 371.8 176.35 378.1 174.8 384.4 173.05 390.65 156.1 501.2 154.35 511.8 152.7 522.4 151.2 533 149.85 543.6" fill="none" stroke="#000" stroke-linecap="square" stroke-miterlimit="10" stroke-width="3"/>
   <polygon points="268.4 469 268.4 469.15 268.5 469.4 268.55 469.6 268.65 470.2 268.6 469.95 268.5 469.4 268.4 469 268.4 468.9 268.35 468.8 268.35 468.75 268.3 468.7 268.35 468.8 268.35 468.85 268.4 468.95" fill-rule="evenodd"/>
   <polyline points="149.85 543.6 149.75 545.25 149.6 546.8 149.55 548.35 149.5 549.8 149.55 551.3 149.6 552.7 149.85 555.45 150.35 558.1 150.7 559.4 151 560.6 151.45 561.85 151.9 563 152.4 564.15 152.9 565.2 154.2 567.35 154.9 568.4 155.6 569.35 156.45 570.35 157.25 571.25 158.15 572.15 159.05 572.95 160.1 573.8 161.1 574.55 163.3 576 165.7 577.35 167 578 168.25 578.55 179.15 579.3 181.1 578.85 183.15 578.3 185.1 577.7 185.95 577.4 186.65 577.05 187.9 576.45 188.35 576.15 188.7 575.8 189.85 575 192.65 571.2 193.65 568.65 194.7 565.85 195.15 564.45 195.55 563.1 195.95 561.85 196.25 560.65 196.6 559.55 196.9 558.5 197.2 557.55 197.4 556.65 197.7 555.85 197.9 555.1 198.1 554.45 198.25 553.85 198.45 553.35 198.6 552.9 198.7 552.55 198.75 552.25 199.65 549.65 200.35 547 200.95 544.3 201.3 541.55 201.8 541.45 201.95 540.85 202.1 540.1 202.3 539.3 202.45 538.4 202.7 537.5 202.95 536.5 203.25 535.45 203.5 534.25 203.9 533.1 204.25 531.8 204.65 530.5 205.05 529.05 205.55 527.6 206 526.05 206.55 524.45 207.05 522.75 208.2 519.45 209.3 516.2 210.4 513.15 211.45 510.15 214.75 498.2 214.7 496.65 215 495.4 215.3 493.85 215.5 493 215.65 492.05 216.05 489.95 216.55 487.7 216.85 486.5 217.1 485.15 217.7 482.35 218.3 479.25 218.7 477.7 219.05 476 219.85 472.45 220.3 470.65 220.7 468.7 221.15 466.75 221.55 464.65 222.05 462.6 222.5 460.4 223.5 455.85 224.05 453.55 224.55 451.1 225.65 446.05 228 435.95 230.25 426.05 231.35 421.2 232.45 416.4 234.6 406.9 236.45 400.4 238.45 393.9 239.55 390.7 240.65 387.45 241.85 384.25 242.45 382.65 242.75 381.85 242.9 381.45 243 381 245.55 375.65 246.2 374.65 246.7 373.85 246.95 373.55 247.15 373.3 247.35 373.1 247.45 372.95 247.95 372.75 248.1 372.75 248.2 372.7 248.4 372.6 248.7 372.6 248.85 372.6 248.95 372.55 249.25 372.55 249.4 372.55 249.5 372.5 250.15 372.6 250.75 372.7 251.45 372.9 252.15 373.15 252.65 373.4 253.1 373.6 253.6 373.9 253.75 374 253.85 374.05 254.05 374.15 254.8 374.65 258.5 382.75 260.6 392.25 262.45 401.65 264.1 411.05 265.5 420.3 266.7 429.55 267.65 438.7 268.4 447.8 268.9 456.8 268.55 457.4 269.55 481.55 270.1 488.65 270.75 495.2 271.45 501.7 272.2 508.2 273.05 514.65 274 521.15 275.05 527.6 276.15 534.05 277.3 540.45 277.4 540.6 277.4 540.75 277.45 540.85 277.45 540.9 277.45 541 277.45 541.3 277.55 541.7 277.6 541.8 277.6 541.85 277.6 541.95 277.6 542.15 277.7 542.7 277.7 543.3 277.95 545.55 278.15 547.55 278.25 548.45 278.35 549.4 278.55 551.4 278.65 552 278.7 552.3 278.7 552.55 278.8 553.7 279 556.1 279.3 558.8 279.45 560.2 279.55 561.65 279.75 563.2 279.85 564 279.9 564.4 279.9 564.75 280.2 568.05 280.55 571.1 280.8 574 281.05 576.75 281.25 579.35 281.45 581.9 281.6 584.25 281.75 586.5 281.8 588.6 282.15 594.25 282.55 599.85 283 605.45 283.55 611 284.05 613.8 284.65 616.55 285.05 617.95 285.5 619.25 286.5 621.85 287.25 623.4 288.05 624.85 288.9 626.25 289.75 627.5 290.75 628.8 291.75 629.95 292.8 631.05 293.85 632.05 295.05 633.1 296.25 634 297.5 634.85 298.8 635.6 300.2 636.35 301.65 636.95 303.15 637.55 304.65 638 306.25 638.45 307.8 638.7 309.35 638.8 310.85 638.7 312.35 638.55 313.8 638.15 315.25 637.65 316.65 636.95 318.9 635.75 320.9 634.4 322.75 632.95 324.4 631.4 325.95 629.75 327.3 628 328.5 626.15 329.5 624.1 330.4 622.05 330.8 621 331.1 619.85 331.65 617.6 331.95 615.15 332.2 612.7 332.2 610.05 332.2 608.75 332.1 607.35 331.75 604.5 332.35 596.8 332.8 589.1 333.2 581.5 333.45 573.95 333.6 570.25 333.55 566.5 333.4 562.75 333.15 558.95 332.95 555 332.75 550.85 332.55 546.55 332.25 542 332.2 539.8 332.1 537.65 332 535.55 331.9 533.5 331.85 531.6 331.75 529.7 331.7 527.9 331.6 526.15 331.6 524.55 331.55 522.95 331.55 521.45 331.45 520 331.45 518.65 331.45 517.35 331.45 516.15 331.45 515.6 331.4 515 331.4 514.65 331.4 514.1 331.35 513.4 331.25 512.45 331.15 511.45 331.05 510.2 330.9 508.85 330.7 507.25 330.6 505.7 330.55 505 330.45 504.3 330.35 503.05 330.35 502.8 330.3 502.5 330.2 501.9 330.2 501.45 330.15 500.95 330.05 500.15 330.05 499.5 330.05 499.25 330 498.95 330 498.8 330.3 494.6 330.4 490.35 330.3 486.1 329.95 481.8 329.85 480.05 329.65 478.1 329.55 476.1 329.35 473.95 329.25 471.75 329.05 469.4 328.9 466.95 328.7 464.35 328.6 461.7 328.4 458.95 328.25 456.1 328.05 453.05 327.95 450 327.75 446.75 327.55 443.45 327.35 440 327.25 436.6 327.05 433.25 326.95 430 326.75 426.75 326.65 423.65 326.6 422.15 326.5 420.6 326.4 417.65 326.4 416.95 326.4 416.6 326.35 416.2 326.25 414.7 326.2 412.5 326.2 411.4 326.2 410.85 326.15 410.25 326.1 405.85 326.2 403.7 326.25 401.5 326.4 397.2 326.8 393 327.25 388.7 327.85 384.4 328.55 380 328.95 378.7 332.6 364.2 336.95 359.75 337.5 359.7 337.85 359.75 338.1 359.9 338.25 360.1 338.65 361.25 339 362.45 339.4 363.8 339.8 365.15 340.3 366.65 340.7 368.2 341.2 369.85 341.65 371.55 341.95 372.5 342.2 373.4 342.7 375.35 343.3 377.4 343.8 379.45 344.4 381.65 345 383.9 345.6 386.25 346.2 388.7 350.8 406.95 351.3 407.2 352.75 412.7 354.1 417.85 355.4 422.8 356.55 427.45 357.7 431.9 358.75 436 359.75 439.9 360.65 443.5 361.55 446.75 362.35 449.75 363.15 452.6 363.85 455.25 364.55 457.8 365.2 460.1 365.8 462.25 366.35 464.2 366.9 466.05 367.4 467.7 367.85 469.2 368.25 470.45 368.65 471.65 369 472.6 369.3 473.4 369.55 473.95 370.1 474.3 370.85 480.55 371.7 486.65 372.75 492.75 373.9 498.7 375.25 504.65 376.7 510.5 378.35 516.35 380.1 522.05 382.1 527.8 384.2 533.4 386.45 539 388.8 544.45 391.35 549.9 394.05 555.25 396.9 560.6 399.85 565.8 400.8 567.05 401.8 568.1 402.9 569.05 404.05 569.9 405.3 570.65 406.65 571.3 408.05 571.85 409.5 572.3 411.45 572.8 413.3 573.1 415.15 573.25 416.85 573.25 418.6 573.15 420.2 572.85 421.8 572.45 423.3 571.85 424.85 571.2 426.25 570.35 427.65 569.4 428.95 568.25 430.25 567 431.45 565.6 432.65 564.05 433.7 562.3 434.7 560.25 435 558.85 435.25 557.2 435.45 555.45 435.6 553.45 435.75 551.35 435.8 549 435.85 546.5 435.8 543.8 435.8 541.15 435.7 538.55 435.6 536.15 435.45 533.8 431.3 505.35 430.85 505.05 430.15 501.15 429.45 497.35 429.15 495.55 429 494.65 428.8 493.7 428.5 491.95 428.45 491.55 428.35 491.1 428.15 490.2 428.05 489.4 428 489 427.9 488.55 427.6 486.9 427.1 483.75 426.9 482.25 426.65 480.75 426.45 479.3 426.35 478.6 426.35 478.45 426.3 478.25 426.2 477.85 425.75 474.25 425.35 470.7 425.2 469 425 467.25 424.7 463.8 424.5 460.5 424.45 458.9 424.35 457.25 424.25 454.1 424.25 452.55 424.2 450.95 421.95 435.3 421.65 433.2 421.35 431.15 421.05 429.2 421.05 429 421 428.75 420.9 428.25 420.7 427.25 420.4 425.4 420.1 423.6 419.8 421.9 419.65 421.1 419.45 420.25 419.35 419.5 419.2 418.7 418.9 417.2 418.3 414.4 418.1 413.1 417.8 411.85 417.7 411.3 417.55 410.7 417.25 409.55 417 408.15 416.65 406.55 416.3 404.7 415.9 402.6 415.5 400.35 415.05 397.85 414.6 395.1 414.05 392.1 413.65 389.45 413.45 388.2 413.2 386.9 412.8 384.5 412.6 383.4 412.5 382.85 412.35 382.25 411.95 380.2 411.55 378.25 411.15 376.45 410.95 375.65 410.85 375.25 410.8 375.05 410.7 374.8 410.6 373.8 410.5 372.85 410.4 372.05 410.3 371.35 410.3 370.85 410.2 370.4 410.2 370.1 410.1 369.85 410 369.4 409.9 368.85 409.8 368.2 409.65 367.45 409.55 366.7 409.45 365.75 409.15 363.7 408.95 361.6 408.75 359.65 407.35 354.9 406.05 350.05 404.95 345.1 403.95 339.95 403.15 334.8 402.5 329.5 402 324.15 401.65 318.6 402.35 317.8 404.55 317.6 406.5 318.2 408.45 319.5 410.3 320.75 413.95 323.45 415.75 324.9 417.45 326.35 419.15 327.9 420.75 329.4 424 332.7 427.05 336.1 428.55 337.9 429.95 339.7 432.7 343.45 435.1 345.3 437.35 347.25 439.5 349.25 441.55 351.3 443.6 353.5 445.45 355.75 447.3 358.05 448.95 360.4 461.15 375.9 461.15 376.6 467.85 384.65 468.5 384.8 474.05 391.9 479.55 399.05 485.05 406.3 490.45 413.6 491.4 415 492.25 416.35 493.1 417.75 493.8 419.15 494.3 419.85 494.7 420.55 495.1 421.3 495.4 422 496.25 423.95 497.1 425.7 498.05 427.45 499 429.05 500.05 430.6 501.15 432.05 502.35 433.45 503.55 434.7 504.9 435.95 506.25 437.05 507.7 438.1 509.15 439.05 510.75 440 512.35 440.75 514.05 441.5 515.75 442.05 517.65 442.55 519.45 442.75 521.25 442.7 523.05 442.35 524.65 441.95 526.1 441.4 527.55 440.75 528.85 439.9 530.15 439 531.3 437.95 532.45 436.8 533.45 435.5 535.15 433.05 536.5 430.4 537.45 428.1 538.1 425.65 538.7 422.85 538.9 421.45 538.95 420 539 417.2 538.9 415.8 538.7 414.35 538.25 411.55 537.45 408.75 537 407.4 536.45 406 535.1 403.2 530 393.4 527.5 388.6 524.9 383.85 519.8 374.55 519.2 373.45 518.9 372.9 518.55 372.3 517.25 370 514.65 365.5 512.15 361.1 509.55 356.75 504.45 348.25 501.95 344.1 499.35 340 496.85 335.95 494.25 331.95 493.5 330.35 491.9 328 490.15 325.65 488.4 323.4 486.45 321.25 484.5 319.2 482.4 317.25 480.25 315.4 477.95 313.6 477.4 312.4 476.75 311.2 476 310.1 475.05 309 473.6 307.4 472.15 305.7 469.35 302.15 466.85 298.5 464.45 294.65 462.35 290.7 460.45 286.55 458.75 282.3 458 280.1 457.25 277.8 456.4 275.15 456.2 274.5 456.1 274.2 456.1 274.15 456.05 274.05 455.95 273.85 455.75 273.25 455.5 272.65 455.45 272.45 455.35 272.2 455.15 271.75 454.75 270.95 454.4 270.25 454.25 269.95 454.05 269.6 453.75 269 453.65 268.75 453.5 268.45 453.15 267.35 452.95 266.25 452.9 266 452.8 265.75 452.65 265.3 452.65 265.2 452.65 265.15 452.6 265.05 452.5 264.8 452.3 264.4 451.6 263.05 450.8 261.85 450 260.8 449.05 259.9 448.9 258.85 448.7 257.6 448.5 256.25 448.2 254.7 447.95 253.05 447.6 251.25 447.25 249.3 446.85 247.2 446.45 244.8 446.3 243.8 446.1 242.85 445.95 241.95 445.75 241.1 445.65 240.35 445.45 239.65 445.35 239 445.2 238.4 445.2 238.2 445.2 238.1 445.2 238.05 445.15 237.95 445.05 237.5 445.05 237.35 445 237.15 444.9 236.8 444.8 236.4 444.8 236.3 444.75 236.25 443.45 228.2 439.35 207.45 438.85 204.6 438.75 203.95 438.6 203.25 438.3 201.85 438.1 200.55 438 199.9 437.85 199.2 437.35 196.55 436.95 194.05 436.45 191.6 436.05 189.25 435.85 188.1 435.6 186.9 435.55 186.4 435.45 185.85 435.25 184.75 434.85 182.65 434.55 180.6 434.55 180.4 434.5 180.15 434.4 179.65 434.2 178.65 433.9 176.8 433.6 175 433.35 173.3 433.05 171.65 432.65 171.25 431 159.45 430.65 159.05 430.65 158.85 430.6 158.6 430.5 158.1 430.3 157.1 429.9 155.1 429.1 151.15 427.5 143.45 426.8 139.7 426 136 425.25 132.4 424.45 128.8 424.25 127.7 423.95 126.55 423.6 125.5 423.15 124.4 422.7 123.4 422.15 122.35 421.6 121.35 420.95 120.3 419.35 117.6 417.85 114.9 416.65 112.2 416.1 110.85 415.6 109.45 414.8 106.75 414.2 104 413.8 101.3 413.6 98.5 413.7 95.8 413.8 94.4 413.95 93 414.45 90.3 414.75 88.9 415.1 87.5 416 84.8 417.1 82 417.75 80.6 418.45 79.2 419.95 76.4 422.65 70 423.4 68.35 424.1 66.75 424.75 65.3 425.3 63.9 425.85 62.7 426.35 61.55 426.8 60.6 427.2 59.65 427.55 58.75 427.65 57.75 427.5 56.75 427.05 55.7 426.45 54.65 425.55 53.5 424.4 52.35 422.95 51.15 421.35 49.95 419.45 48.7 417.35 47.45 414.95 46.1 412.35 44.8 409.5 43.4 406.4 42 403 40.55 400.05 39.35 396.95 38.15 393.75 36.95 390.35 35.7 386.9 34.5 383.25 33.25 379.5 32 375.55 30.7 371.55 29.45 367.35 28.15 363.05 26.85 358.6 25.55 354.05 24.25 349.35 22.95 344.5 21.65 339.5 20.25 335.2 19.15 330.9 18.05 328.8 17.55 328.3 17.45 327.75 17.3 326.65 17 322.35 15.9 318.15 14.9 313.95 13.85 312.95 13.65 312.45 13.55 311.9 13.4 309.8 12.9 305.65 11.9 303.65 11.5 302.65 11.3 302.15 11.2 301.6 11.05 297.55 10.15 293.55 9.3 289.5 8.4 289.05 8.35 288.55 8.25 287.55 8.05 285.55 7.65 281.6 6.85 277.7 6.1 273.8 5.3 270.45 4.7 268.85 4.45 267.25 4.15 264.25 3.65 261.35 3.15 260.05 3 258.7 2.8 258.1 2.75 257.45 2.65 256.2 2.45 253.9 2.15 251.75 1.85 250.75 1.8 249.8 1.7 248.9 1.65 248.05 1.55 247.3 1.55 246.6 1.5 245.95 1.5 245.35 1.5 244.85 1.6 244.4 1.6 243.7 1.7 243.45 1.8 243.25 1.9 243.2 2 243.1 2.05 243 2.15 242.7 3.3 242.25 4.3 241.85 5.2 241.35 6.15 240.85 7.2 240.25 8.25 239 10.65 238.35 11.95 237.6 13.25 236.9 14.7 236.1 16.2 235.3 17.75 234.4 19.35 233.55 21.05 232.6 22.8 231.65 24.6 230.6 26.45 223.15 40.45 221.35 41.55 220.45 42.1 219.5 42.6 215.9 44.75 212.35 46.95 210.65 48.1 208.9 49.2 207.55 49.8 206.9 50.1 206.2 50.35 205.6 50.7 204.95 51 203.7 51.6 203.15 52 202.55 52.35 201.4 53.05 200.3 53.8 199.2 54.55 199 54.8 198.75 55 198.25 55.4 198.05 55.65 197.8 55.85 197.3 56.25 196.45 57.15 195.55 58.05 194.8 59.05 194.05 60.05 193.35 61.1 192.65 62.15 189.35 65.4 180.5 74.15 172.3 83.15 165.35 90.05 145.85 112.25 143.85 114.3 139.45 118.3 137.75 119.85 133.9 123.7 129.95 127.4 126 131.05 121.95 134.5 121.5 134.6 106.6 150 99.1 163.5 94.65 177.95 93.15 181.7 91 187.85 89.85 190.85 88.5 193.75 87.15 196.65 85.65 199.45 84.1 202.25 82.45 204.95 79 210.3 77.15 212.9 75.2 215.4 73.2 217.9 71.05 220.3 68.9 222.7 66.55 225 66.5 225.2 66.25 225.5 66.1 225.75 65.9 226.05 65.65 226.4 65.3 226.75 64.65 227.75 64.25 228.3 63.75 228.85 63.3 229.55 62.75 230.25 62.2 231 61.55 231.75 60.3 233.6 59.7 234.5 59.05 235.3 58.5 236.15 57.95 236.9 56.9 238.35 56.05 239.7 55.25 240.95 54.6 242.1 53.95 243.05" fill="none" stroke="#000" stroke-linecap="square" stroke-miterlimit="10" stroke-width="3"/>
   <polyline points="53.95 243.05 53.25 244.7 52.45 246.25 51.65 247.8 50.7 249.25 49.8 250.7 48.75 252.05 46.55 254.6 41.6 259.95 39.1 262.6 36.5 265.15 31.35 270.2 26 275.15 20.65 280 15.1 284.7 9.45 289.25 3.7 293.65 3.15 294.6 2.7 295.35 2.4 296 2.3 296.25 2.15 296.4 1.95 297.25 1.75 298.05 1.6 298.85 1.5 299.65 1.5 301.6 1.7 303.45 1.9 304.4 2.15 305.3 2.45 306.2 2.8 307 3.5 308.3 4.25 309.45 5.05 310.55 5.9 311.5 6.85 312.45 7.85 313.2 8.9 313.9 10 314.45 14.1 316.3 18.1 317.85 22.2 319.15 26.2 320.15 30.3 320.95 32.35 321.25 34.35 321.4 38.45 321.65 42.45 321.6 46.55 321.35 50.65 320.8 54.75 320.05 56.8 319.55 58.8 318.95 62.9 317.65 67 316.05 71.1 314.25 75.2 312.1 76.8 311.3 78.45 310.4 80.2 309.5 82 308.45 83.85 307.5 84.75 307.05 85.55 306.55 87.1 305.65 88.5 304.75 89.85 304 90.5 303.65 91.05 303.25 92.1 302.55 92.6 302.25 93 301.9 97.4 296.95 101.1 289.95 105.2 277 106.45 274.8 106.8 274.3 107.05 273.85 107.3 273.45 107.45 273.1 107.6 272.85 107.7 272.65 107.75 272.5 107.75 272.4 110.55 268.1 113.3 264.8 117.4 260.75 118.7 259.4 120.2 257.95 121.9 256.4 123.8 254.65 124.85 253.8 125.95 252.9 128.25 250.95 130.75 249 133.45 246.85 137.05 244.2 140.75 241.5 143.85 239.35 151.95 239.1 154.7 241.55 157.25 244.05 159.8 246.65 162.15 249.3 164.5 252.05 166.65 254.9 168.8 257.85 170.75 260.85 170.8 260.95 170.85 261.05 171 261.25 171.15 261.45 171.3 261.65 171.4 261.8 171.55 262 171.65 262.15 171.85 262.4 172 262.6 172.2 262.85 172.35 263.05 173.2 264.2 173.85 265.1 174.15 265.5 174.35 265.8 174.55 266.1 174.65 266.3 176.3 269 177.7 271.7 178.95 274.5 179.5 275.95 179.95 277.35 180.9 280.3 181.6 283.3 182.15 286.4 182.5 289.5 183.05 295.9 183.4 302.25 183.65 308.65 183.7 314.95 183.65 321.35 183.4 327.65 183.05 333.95 182.5 340.25 181.9 346.6 181.1 352.9 180.15 359.2 179 365.5 177.75 371.8 176.35 378.1 174.8 384.4 173.05 390.65 156.1 501.2 154.35 511.8 152.7 522.4 151.2 533 149.85 543.6" fill="none" stroke="#000" stroke-linecap="square" stroke-miterlimit="10" stroke-width="3"/>
  </g>
  <path d="m190.63 325.83c-0.14804-0.50363-0.85858-4.1291-1.579-8.0566-0.7204-3.9275-2.1859-10.491-3.2567-14.586-2.7983-10.702-22.556-135.59-22.557-142.59-1e-3 -7.9708 4.1079-15.574 10.694-19.787 3.7814-2.4189 4.9682-2.76 10.086-2.8984 6.8804-0.18614 10.937 1.4027 13.248 5.1885 1.4753 2.4173 8.024 22.625 8.024 24.76 0 0.58185 2.5143 8.7926 5.5874 18.246 3.0731 9.4536 6.1264 20.094 6.7853 23.646 1.2667 6.829 1.5716 8.1843 11.09 49.303 6.2016 26.79 10.428 41.303 14.191 48.728 1.1686 2.3062 2.0116 4.2752 1.8731 4.3754s-8.6423 2.4295-18.897 5.1761c-10.255 2.7466-22.33 5.9868-26.833 7.2004-5.6988 1.536-8.2686 1.9282-8.456 1.2908z" fill="#7d7"/>
  <g fill="#a0a0a0">
   <path d="m286.22 314.99c-16.365-2.9691-29.823-5.4311-29.908-5.4711-0.0846-0.04 0.50575-1.5901 1.3118-3.4448 3.7877-8.7152 9.2391-45.472 9.914-66.847 0.76864-24.343 1.9663-36.614 5.9629-61.095 2.5878-15.852 4.3226-31.662 5.572-50.78 1.1771-18.013 2.0319-22.916 4.9496-28.39 4.2432-7.9611 13.549-13.372 19.955-11.603 5.307 1.4653 10.194 5.5241 12.852 10.673 2.4708 4.7873 2.4776 4.8359 3.1906 22.613 0.84405 21.046 0.78994 27.681-0.42347 51.933-0.50219 10.037-1.2483 26.283-1.658 36.101-0.4097 9.8188-1.2932 26.779-1.9634 37.688-1.4563 23.707-1.635 45.385-0.44161 53.557 0.72571 4.9692 2.5759 12.894 4.4919 19.241 0.60798 2.0138-0.32724 1.8983-33.806-4.1759z"/>
   <path d="m354.39 339.06-25.845-16.48 1.4938-4.785c0.82159-2.6318 3.2295-11.212 5.351-19.067 2.1215-7.855 6.1842-22.896 9.0283-33.424 6.1499-22.766 9.9495-35.938 10.857-37.637 0.36375-0.68124 1.4092-5.8584 2.3232-11.505 3.1856-19.679 8.2769-35.885 16.686-53.112 6.6074-13.536 8.8995-16.851 12.909-18.672 6.5649-2.98 14.03-1.5163 18.982 3.722 3.2586 3.4468 3.8193 5.89 3.8193 16.641 0 10.196-1.5389 22.236-5.1868 40.581-2.4275 12.207-4.3344 26.595-4.3344 32.705 0 5.8576-2.4924 23.031-5.5276 38.088-3.6275 17.994-6.4541 33.11-7.5669 40.465-0.56121 3.7093-1.7861 9.6449-2.722 13.19-0.93587 3.5453-2.3136 10.794-3.0615 16.107l-1.36 9.6612z"/>
   <path d="m404.32 383.12-18.605-22.408 5.5949-3.7458c4.8622-3.2552 9.8571-8.0145 19.801-18.867 1.3506-1.474 3.5809-3.5426 4.9561-4.5968 1.3752-1.0542 6.9095-7.5134 12.298-14.354 5.3888-6.8403 11.271-14.055 13.072-16.033 7.1074-7.8053 21.517-27.191 24.508-32.972 1.7388-3.36 4.5341-7.5326 6.2118-9.2724 4.1248-4.2774 10.796-7.2946 14.91-6.7428 9.5623 1.2826 16.002 14.729 12.282 25.647-2.6765 7.8551-22.859 43.19-36.73 64.305-3.2673 4.9737-7.6421 10.47-9.9795 12.538-9.644 8.533-19.44 23.015-23.097 34.146-1.9052 5.7989-4.9563 13.1-5.8462 13.99-0.50167 0.50168-7.3029-7.092-19.378-21.635z"/>
  </g>
  <g>
   <path d="m303.67 317.71c-5.8913-1.0501-11.158-1.7451-11.703-1.5443-0.54549 0.20076-0.9918 0.0888-0.9918-0.24879 0-0.77728-11.636-2.7679-12.621-2.1592-0.40256 0.24879-0.85169 0.14568-0.99806-0.22916-0.14637-0.37483-4.7283-1.477-10.182-2.4493-5.4537-0.97227-10.035-1.8869-10.181-2.0325-0.14561-0.14561 0.0952-0.93738 0.5352-1.7595 3.9493-7.3793 9.0343-42.043 10.448-71.219 1.0384-21.437 2.0011-31.857 4.4372-48.025 1.085-7.2004 2.1291-14.341 2.3203-15.869 0.19121-1.5274 0.86746-6.526 1.5028-11.108 0.63532-4.5821 1.8967-17.509 2.8031-28.726 2.3165-28.667 2.8784-31.041 8.8996-37.599 3.5864-3.9061 9.9576-7.4567 13.351-7.4402 5.4158 0.02642 12.882 6.1037 15.9 12.943 1.4872 3.3699 1.797 6.2535 2.5152 23.406 0.69886 16.693 0.56926 25.15-0.88335 57.648-0.9363 20.947-2.0533 43.976-2.4821 51.177-2.6635 44.718-2.36 65.113 1.1744 78.929 1.1139 4.3539 2.0252 8.0136 2.0252 8.1327 0 0.60564-6.2672-0.11619-15.869-1.8277z" fill="#21cee1"/>
   <path d="m355.25 339.07c-13.31-8.5071-24.656-15.728-25.214-16.047-0.80219-0.45849-0.68903-1.6464 0.54233-5.6929 0.85582-2.8124 6.382-22.787 12.28-44.389 5.8984-21.601 11.281-40.847 11.962-42.768 0.68061-1.9211 1.4089-4.599 1.6184-5.9508 3.6378-23.47 9.1733-41.867 18.219-60.552 8.3897-17.33 11.034-20.06 19.431-20.06 4.2666 0 7.875 1.3938 11.024 4.2584 3.6511 3.321 4.1672 5.4287 4.1631 17.001-4e-3 11.508-0.69795 17.175-5.2153 42.594-1.5492 8.7175-2.9742 18.235-3.1666 21.15-0.19236 2.9152-0.75578 9.172-1.252 13.904-0.49626 4.732-1.0136 10.032-1.1498 11.777-0.13612 1.7456-0.43146 3.7093-0.65632 4.3639-0.47359 1.3786-3.7715 19.272-4.0946 22.216-0.11973 1.091-0.42058 2.5192-0.66856 3.1738-0.24799 0.65458-1.5793 7.4385-2.9584 15.075-1.3791 7.6368-3.355 17.991-4.3907 23.01s-2.6498 13.766-3.5868 19.439c-0.93699 5.6731-1.925 10.911-2.1957 11.639-0.40122 1.0799-4.9595-1.531-24.692-14.143z" fill="#a240e8"/>
   <path d="m417.7 398.11c-7.73-8.6689-30.718-36.478-30.718-37.16 0-0.32856 1.3389-1.4077 2.9754-2.398 4.9602-3.0018 29.223-27.437 37.731-38.001 4.394-5.4549 10.726-13.131 14.072-17.059 6.7453-7.9189 18.954-23.933 19.66-25.787 0.24911-0.65459 0.91716-1.6599 1.4846-2.2341 0.5674-0.57414 2.4612-3.4916 4.2084-6.4833 3.8745-6.6341 6.9364-9.7896 11.978-12.344 7.3733-3.7363 13.132-1.9389 17.757 5.5424 2.019 3.2656 2.4464 4.8551 2.6626 9.903 0.25256 5.8953 0.17319 6.184-4.053 14.741-7.9338 16.064-27.675 49.399-36.048 60.87-2.1393 2.9311-6.7892 8.355-10.333 12.053-6.3486 6.6251-14.754 18.058-14.754 20.069 0 0.5665-0.26422 1.03-0.58716 1.03-0.55773 0-2.4266 4.316-7.4724 17.257-1.2336 3.1638-2.5111 5.7524-2.8389 5.7524s-2.9042-2.5886-5.7254-5.7524z" fill="#fa8c00"/>
  </g>
  <g fill="#000000" font-family="'Arial Black'" font-size="64px">
   <text x="139.60376" y="135.82988" style="line-height:1.25" xml:space="preserve"><tspan x="139.60376" y="135.82988">1</tspan></text>
   <text x="281.87253" y="75.153717" style="line-height:1.25" xml:space="preserve"><tspan x="281.87253" y="75.153717">2</tspan></text>
   <text x="376.97916" y="129.02063" style="line-height:1.25" xml:space="preserve"><tspan x="376.97916" y="129.02063">3</tspan></text>
   <text x="461.8978" y="238.49672" style="line-height:1.25" xml:space="preserve"><tspan x="461.8978" y="238.49672">4</tspan></text>
  </g>
 </g>
</svg>
